<svg xmlns="http://www.w3.org/2000/svg"
 xmlns:xlink="http://www.w3.org/1999/xlink"
 width="16px" height="11px"  viewBox="0 0 16 11">
<path fill-rule="evenodd"  fill="#435993"
 d="M14.762573,3.234375 C14.762573,3.234375 9.616699,8.379578 9.616699,8.379578 C9.616699,8.379578 9.764709,8.527527 9.764709,8.527527 C9.764709,8.527527 8.424438,9.867737 8.424438,9.867737 C8.424438,9.867737 8.276367,9.719666 8.276367,9.719666 C8.276367,9.719666 8.128357,9.867737 8.128357,9.867737 C8.128357,9.867737 6.788086,8.527527 6.788086,8.527527 C6.788086,8.527527 6.936096,8.379578 6.936096,8.379578 C6.936096,8.379578 1.7902222,3.234375 1.7902222,3.234375 C1.7902222,3.234375 3.1304932,1.8942871 3.1304932,1.8942871 C3.1304932,1.8942871 8.276367,7.0394897 8.276367,7.0394897 C8.276367,7.0394897 13.422302,1.8942871 13.422302,1.8942871 C13.422302,1.8942871 14.762573,3.234375 14.762573,3.234375 Z"/>
</svg>