<svg xmlns="http://www.w3.org/2000/svg"
 xmlns:xlink="http://www.w3.org/1999/xlink"
 width="16px" height="11px"  viewBox="0 0 16 11">
<path fill-rule="evenodd"  fill="#435993"
 d="M1.9873047,7.666504 C1.9873047,7.666504 7.145569,2.5010986 7.145569,2.5010986 C7.145569,2.5010986 6.9972534,2.3526611 6.9972534,2.3526611 C6.9972534,2.3526611 8.34082,1.0072021 8.34082,1.0072021 C8.34082,1.0072021 8.489136,1.1558228 8.489136,1.1558228 C8.489136,1.1558228 8.637512,1.0072021 8.637512,1.0072021 C8.637512,1.0072021 9.981018,2.3526611 9.981018,2.3526611 C9.981018,2.3526611 9.832703,2.5010986 9.832703,2.5010986 C9.832703,2.5010986 14.990967,7.666504 14.990967,7.666504 C14.990967,7.666504 13.6474,9.01178 13.6474,9.01178 C13.6474,9.01178 8.489136,3.8464966 8.489136,3.8464966 C8.489136,3.8464966 3.3308716,9.01178 3.3308716,9.01178 C3.3308716,9.01178 1.9873047,7.666504 1.9873047,7.666504 Z"/>
</svg>