<svg xmlns="http://www.w3.org/2000/svg"
 xmlns:xlink="http://www.w3.org/1999/xlink"
 width="50px" height="50px"  viewBox="0 0 50 50">
<path fill-rule="evenodd"  fill="#9e9e9e"
 d="M40.015564,13.989258 C40.015564,13.989258 24.009766,13.989258 24.009766,13.989258 C24.009766,13.989258 24.009766,11.989258 24.009766,11.989258 C24.009766,11.989258 40.015564,11.989258 40.015564,11.989258 C40.015564,11.989258 40.015564,13.989258 40.015564,13.989258 ZM40.015564,19.993164 C40.015564,19.993164 24.009766,19.993164 24.009766,19.993164 C24.009766,19.993164 24.009766,17.993164 24.009766,17.993164 C24.009766,17.993164 40.015564,17.993164 40.015564,17.993164 C40.015564,17.993164 40.015564,19.993164 40.015564,19.993164 ZM40.015564,25.996094 C40.015564,25.996094 24.009766,25.996094 24.009766,25.996094 C24.009766,25.996094 24.009766,23.995972 24.009766,23.995972 C24.009766,23.995972 40.015564,23.995972 40.015564,23.995972 C40.015564,23.995972 40.015564,25.996094 40.015564,25.996094 ZM40.015076,31.998047 C40.015076,31.998047 11.015015,31.998047 11.015015,31.998047 C11.015015,31.998047 11.015015,29.998047 11.015015,29.998047 C11.015015,29.998047 40.015076,29.998047 40.015076,29.998047 C40.015076,29.998047 40.015076,31.998047 40.015076,31.998047 ZM40.015076,38.0 C40.015076,38.0 11.015015,38.0 11.015015,38.0 C11.015015,38.0 11.015015,36.0 11.015015,36.0 C11.015015,36.0 40.015076,36.0 40.015076,36.0 C40.015076,36.0 40.015076,38.0 40.015076,38.0 ZM19.996033,12.989258 C20.54779,12.989258 M19.996033,11.989258 C19.996033,11.989258 12.995972,11.989258 12.995972,11.989258 C11.892517,11.989258 10.995972,12.884766 10.995972,13.989258 C10.995972,13.989258 10.995972,22.989258 10.995972,22.989258 C10.995972,24.09375 11.892517,24.989258 12.995972,24.989258 C12.995972,24.989258 19.996033,24.989258 19.996033,24.989258 C21.101501,24.989258 21.996033,24.09375 21.996033,22.989258 C21.996033,22.989258 21.996033,13.989258 21.996033,13.989258 C21.996033,12.884766 21.101501,11.989258 19.996033,11.989258 C19.996033,11.989258 19.996033,11.989258 19.996033,11.989258 ZM25.5,48.999878 C12.541931,48.999878 1.999939,38.457886 1.999939,25.499878 C1.999939,12.54187 12.541931,2.0 25.5,2.0 C38.457947,2.0 48.99994,12.54187 48.99994,25.499878 C48.99994,38.457886 38.457947,48.999878 25.5,48.999878 ZM25.5,3.0 C13.093689,3.0 2.999939,13.093628 2.999939,25.499878 C2.999939,37.90625 13.093689,47.999878 25.5,47.999878 C37.906128,47.999878 48.0,37.90625 48.0,25.499878 C48.0,13.093628 37.906128,3.0 25.5,3.0 Z"/>
</svg>